<svg xmlns="http://www.w3.org/2000/svg" viewBox="0 0 519.81 867.74"><defs><style>.cls-1,.cls-2{fill:#fff;}.cls-2{font-size:37.11px;font-family:PlayfairDisplaySC-Regular, PlayfairDisplaySC Regular;}.cls-3{fill:none;stroke:#fdff51;stroke-miterlimit:10;}</style></defs><g id="Layer_2" data-name="Layer 2"><g id="Layer_1-2" data-name="Layer 1"><path class="cls-1" d="M250.7,776.62a51.18,51.18,0,0,1-1.95-6.84,18.26,18.26,0,0,1,.41-4.91c1.1-7.67,3.72-9.4,11.44-7.64,10.87,2.47,20.71,13.07,22.39,24,.45,2.94-.62,4.62-3.43,5.62-7.58,2.68-15.06,3.43-22.48-.47-1.28-.68-2.66-1.19-5.13-2.29-.37,3.63-.69,6.64-1,9.66l1.38.61c.91-1.31,1.58-2.93,2.79-3.84s3.07-1.23,4.63-1.8c.47,1.79,1.69,3.81,1.23,5.31-.58,1.89-2.43,3.45-3.91,5-6.54,6.85-9.49,6.15-12.36-2.88C242.21,788.26,244.66,781.21,250.7,776.62Zm4,.09c6.54,4.46,12.94,7.5,20.72,5-.38-11-10.83-18.58-19.29-17.8-.24,1.56-.5,3.22-.89,5.74,3-.71,5.14-1.52,7.33-1.64,1.38-.08,2.82.85,4.24,1.32-.61,1.35-.88,3.44-1.89,3.92C261.89,774.67,258.55,775.47,254.71,776.71Z"/><text class="cls-2" transform="translate(248.11 853.36)">Z</text><path class="cls-1" d="M27.47,32.1c2.91,7.36,5.25,13.56,7.88,19.63a4.79,4.79,0,0,0,3.3,2.59c6.47.21,13,.28,19.44-.11,3.76-.22,5.89-3,4.94-6.67a189.78,189.78,0,0,0-7.21-23.26c-1.63-4-8.82-5.41-13.54-3.79-1.41.48-2.75,1.43-4.17,1.54-1.27.09-3.45-.4-3.71-1.15a5,5,0,0,1,.76-4.28,17,17,0,0,1,26,2c7,10.08,9.43,21.77,10.46,33.77.34,4-1.58,7.26-5.7,7.72a267.55,267.55,0,0,1-27.24,2.06c-5.57.06-9.83-3.27-11.64-8.91C24.6,45.65,22.28,38,19.81,30.36c-1.2-3.75,0-5.62,3.92-6.12A50.56,50.56,0,0,1,50.07,27.7c5.93,2.49,7.63,6.24,5.06,12.11a36.9,36.9,0,0,1-6.35,9.74c-1,1.14-3.81.69-5.79,1,.31-1.58.18-3.47,1-4.7,6.92-10.14,5.78-12.58-6.75-13.67C34.69,31.91,32.09,32.1,27.47,32.1Z"/><path class="cls-1" d="M44.17,40.74c-2.36,1.53-4,3.33-5,3-1.62-.49-2.83-2.33-4.21-3.6,1.37-1.22,2.7-3.34,4.11-3.39S41.89,38.84,44.17,40.74Z"/><text class="cls-2" transform="translate(33.83 106.59)">A</text><path class="cls-1" d="M142.41,27.78c1.51-3.58,2.58-7.45,4.72-10.59,1.07-1.56,4.12-1.78,6.27-2.61.12,2.09.9,4.42.22,6.2-1.2,3.16-3.29,6-5.42,9.66,6.11,1.56,9.3-1,12.06-4.39,3-3.61,5.54-7.53,8.69-11,1.12-1.22,3.41-1.36,5.16-2,.4,2,1.36,4,1,5.84a18.21,18.21,0,0,1-2.85,6.65c-6.82,10.51-6,21.18-1.08,32,.3.66.47,1.39.67,2a4.16,4.16,0,0,1-.6,1.12c-6.41,5.42-6.93,5.55-9.26-2.59-1.91-6.67-2.48-13.72-3.65-20.68-10.61,1.18-13.82.13-10.64,8.06,1.1-.65,2.14-1.74,3.23-1.8a24.91,24.91,0,0,1,5.29.8c-.51,1.55-.73,3.29-1.59,4.62A105.93,105.93,0,0,1,148,58.27c-1.08,1.33-2.57,3-4,3.14-1,.12-2.57-1.86-3.35-3.21-.59-1-.25-2.55-.49-3.82-1.37-7.1,1.32-14.45-5.58-21.18-5.63-5.49-3.37-14.45.41-21.61.58-1.1,2.21-1.64,3.35-2.45.74,1.34,2.08,2.67,2.1,4,.06,3.15-.73,6.3-.75,9.46,0,1.81.83,3.63,1.28,5.45Z"/><text class="cls-2" transform="translate(141.63 106.59)">B</text><path class="cls-1" d="M257.45,38.05c-3.36,0-6,.21-8.54,0-4.1-.4-6.35-2.75-4.79-6.84a156,156,0,0,1,8.12-18.37c2.6-4.82,5.66-4.52,7.91.45a62.67,62.67,0,0,1,4.62,12.57c.91,4.31,3.13,4,6.45,3.65,2.4-.24,4.93.81,7.4,1.28a52,52,0,0,0-2.5,6.35c-.94,3.65-1.47,7.41-2.31,11.1-.51,2.23-1.28,4.41-1.94,6.61-1.57-2-4-3.89-4.52-6.17-.77-3.54-.2-7.37-1.38-11.48-.57,1.7-.86,3.57-1.78,5.05-4.14,6.73-8.35,13.42-12.8,20a6,6,0,0,1-4.24,2.21c-1.36,0-3-1.13-4-2.25-.33-.38.71-2.64,1.65-3.32C251.79,53.83,254.84,46.6,257.45,38.05ZM256.4,22,254.61,22l-3.73,9.33c3.05-.72,6.11-1,6.16-1.53C257.29,27.22,256.69,24.61,256.4,22Z"/><text class="cls-2" transform="translate(248.11 106.59)">C</text><path class="cls-1" d="M361.37,18.69c1.93-2.76,2.79-4,3.63-5.19,4.58-6.74,8.08-7,12.48-.05,3.38,5.41,5.74,11.54,7.89,17.58.45,1.26-2,3.55-3.1,5.37-1.27-1.32-3-2.44-3.71-4-2.08-4.88-3.75-9.94-5.78-15.5-4.95,3.38-5.64,5.78-2.5,10.34,5.57,8.1,10.22,16.86,14.91,25.52a6.75,6.75,0,0,1-.43,5.7c-5.6,8.87-23.19,9.36-28.86.79-3.81-5.76-5.8-12.1-3.36-19.11.91-2.65,1.25-5.56,2.55-8,2.64-4.93,4.11-9.35-1-13.76-.76-.66.05-3.15.14-4.79,1.54.36,3.28.4,4.58,1.18C359.8,15.36,360.24,16.88,361.37,18.69Zm16.86,35c-4.63-7.81-8.92-15-14.15-23.85-1.73,5.23-2.9,8.67-4,12.14-1.74,5.46-1.06,10.58,3.65,14.1S372.8,56.42,378.23,53.68Z"/><text class="cls-2" transform="translate(355.14 106.59)">D</text><path class="cls-1" d="M461.31,56c6.06,1.43,11.95,1.16,16.95-2.58s5-9.29,4-14.85c-.59-3.39-2.21-5.18-6.2-4.47-5.76,1-11.32,0-15.33-4.64-1.31-1.52-1.4-4.09-2-6.17,2.25.37,4.53.61,6.74,1.13,2.47.59,4.89,1.44,7.33,2.17.3-.68.61-1.36.91-2-2.43-1.9-5.25-3.48-7.17-5.8-1.65-2-3.52-5.13-3.05-7.25.64-2.88,3.84-3.34,6.28-1a75.91,75.91,0,0,1,8.47,8.93c3.24,4.38,5.72,3,8.3-.36,1-1.32,1.66-3,2.84-4.14,2.4-2.3,5.35-2.8,6.91.6a110.08,110.08,0,0,1,6.2,16.72c.45,1.66-1.57,4-2.45,6-1.78-1.53-4-2.78-5.22-4.67s-1.42-4.41-2.09-6.74c-4.43,1.1-5.32,2.92-4.34,7,1.18,4.94,2.2,10.5,1.11,15.3-4,17.79-26.14,18.43-38.34,11.3-1-.59-1.64-3.89-1-4.95,3.87-5.92,4.73-11.57.5-17.71-.56-.81.09-3.41,1-4.05,1.43-1,4.36-2.06,5.19-1.35,1.94,1.63,3.95,4.19,4.22,6.58C461.73,44.3,461.31,49.73,461.31,56Z"/><path class="cls-1" d="M471.29,51.08c-2.34-2.65-5.11-5-4.78-5.54,1.34-2.37,3.62-4.2,5.55-6.23,1.3,1.71,3.68,3.47,3.6,5.11C475.57,46.35,473.33,48.17,471.29,51.08Z"/><text class="cls-2" transform="translate(464.94 106.59)">E</text><rect class="cls-3" x="0.5" y="0.5" width="87.34" height="123.2" rx="12"/><rect class="cls-3" x="108.37" y="0.5" width="87.34" height="123.2" rx="12"/><rect class="cls-3" x="216.24" y="0.5" width="87.34" height="123.2" rx="12"/><rect class="cls-3" x="324.1" y="0.5" width="87.34" height="123.2" rx="12"/><rect class="cls-3" x="431.97" y="0.5" width="87.34" height="123.2" rx="12"/><path class="cls-1" d="M54,179.35c4,6.45,8.05,12.61,11.72,19,1.14,2,1.32,4.5,1.93,6.77-2.47-.45-5.21-.38-7.35-1.47-4.72-2.42-9.13-5.43-12.88-7.72-4.48,7.29-8.22,13.76-12.35,20-2.44,3.67-5.71,3.66-9,.73l11.23-18.83-1.43-1.86c-1.71.67-3.49,1.22-5.13,2s-3.35,2.56-5.18,2.88A5.46,5.46,0,0,1,21.13,199c-.65-.85-.34-3.55.51-4.23,4-3.21,8.31-6,12.67-9.07-1.88-4.47-4.33-9.26-5.83-14.34-.62-2.09.37-5,1.49-7.12.67-1.24,3.36-2.49,4.54-2.06,1.51.54,2.92,2.6,3.49,4.3,2.08,6.12,3.61,12.43,5.79,18.52.51,1.42,2.77,2.22,5,3.91-1.42-6.12-2.78-10.87-3.5-15.72a7.15,7.15,0,0,1,1.85-5.27c.55-.57,3.28.45,4.69,1.29,4.93,2.94,9.92,2.77,15.05.84,3.19-1.2,7-2,7.45,2.32.19,1.87-3.23,5.32-5.59,6C64.66,179.47,60.08,179,54,179.35Z"/><text class="cls-2" transform="translate(37.47 260.12)">F</text><path class="cls-1" d="M157.43,200.25l10.66-14.2c4.37,2.83,5.34,5.11,2,8.51-4.09,4.23-7.36,8.92-7.08,15.31,0,1-1.12,2.92-1.87,3a6.54,6.54,0,0,1-4.54-1.21c-1.65-1.42-2.73-3.5-4.58-6-2,2.45-3.66,4.87-5.75,6.78a9.19,9.19,0,0,1-5,2.25c-1.08.1-3.41-1.72-3.3-2.11a14.8,14.8,0,0,1,2.66-4.41A27.93,27.93,0,0,1,144.4,204c3.14-2.72,3.25-5.48,1.72-9.36a33.91,33.91,0,0,1-2-12c0-4.44,2.56-5.63,6.86-4.14.25,3.74.49,7.38.73,11l1.88.24,4.76-22.43c-8.53,2.15-13.72,6.23-18.59,10.89a41.13,41.13,0,0,1-6.33,5.43c-1.14.72-3.72.87-4.44.11s-1-3.23-.48-4.6c3.2-8.82,23.79-21.4,33.05-20.51,5.19.5,4.79,4.58,4.08,7.54-2.35,9.78-5.31,19.41-8,29.1-.45,1.6-.87,3.21-1.3,4.82Z"/><text class="cls-2" transform="translate(137.09 256.36)">G</text><path class="cls-1" d="M279.08,166.45c-11.7-.18-14.26,1.84-13.13,11.21.81,6.76,3.07,13.4,5.22,19.91.4,1.22,3.28,2.05,5.11,2.28,4.7.58,9.55.28,14.11,1.33,1.41.32,2.08,3.84,3.09,5.9-1.85.46-4,1.78-5.51,1.23-4.79-1.76-9.1-1.74-13.25,1.36-3.48,2.6-5.84,1.47-7.37-2.24-2.39-5.8-4.74-11.62-7.68-18.86-1.38,6-2.13,10.68-3.63,15.13-.71,2.13-2.85,3.77-4.35,5.63-1.32-2.16-3.67-4.27-3.8-6.51-.43-7.9-1-15.56-5.37-22.58-3.68-6-7.71-11.2-14.6-13.9-1.66-.65-2.44-3.58-3.62-5.46,2.32-.54,5.09-2.16,6.89-1.43,8.09,3.3,13.81,9.35,17.49,17.29,1.47,3.16,3,6.31,5.09,10.82,1.46-7.63,2.41-13.95,4-20.12.52-2,2.4-4.71,4.16-5.16a142.51,142.51,0,0,1,20.71-3.75c1.27-.14,4.39,3.33,4.11,4.53A123.15,123.15,0,0,1,280.59,182c-.59,1.41-3.87,1.69-5.91,2.49-.13-2.05-.79-4.26-.25-6.11C275.54,174.55,277.29,170.92,279.08,166.45Z"/><text class="cls-2" transform="translate(244.85 254.54)">H</text><path class="cls-1" d="M362.74,204.39c1.5,1.28,2.83,2.86,4.53,3.74,2.24,1.17,4,2.15,2.38,5s-4.27,3.34-6.55,1.4a28.18,28.18,0,0,1-6.37-7.61,74.15,74.15,0,0,1-4.8-11.81c-1.07-3.1.55-5.43,3.53-5.67,1.56-.13,3.29,1.74,4.94,2.72,2.83,1.71,5.61,3.51,8.52,5.07a4.24,4.24,0,0,0,2.73-.22c5.15-1.56,11.69-2.29,13.19-8.1s-4.25-9.12-8.2-12.25a31,31,0,0,0-10.4-5.08c-5.91-1.74-7.55-.33-8.42,6-.15,1.11.18,2.45-.34,3.3-.78,1.28-2.19,3.16-3.2,3.08-1.46-.12-3.68-1.52-4-2.8-1.83-6.78,1.58-12.35,5.19-17.59,3-4.33,7.05-1.61,10.76-1,10.42,1.68,17,8.9,23.19,16.41,4.64,5.63,4.29,10.67-1.23,16.46C381.44,202.47,373.07,205.35,362.74,204.39Z"/><path class="cls-1" d="M368.85,192.43c-2-2.92-4.42-5-4-6.14.63-1.8,3.11-2.95,4.8-4.38,1.12,1.51,3.17,3,3.12,4.51C372.69,188.08,370.75,189.68,368.85,192.43Z"/><text class="cls-2" transform="translate(364.9 260.54)">I</text><path class="cls-1" d="M473.65,178c.35-4.9-7.08-7.22-2-11.54,1.31-1.12,4.67.17,7.93.42a44.15,44.15,0,0,1,.73-6,5.23,5.23,0,0,1,2.32-3.28c.74-.35,2.48.55,3.31,1.37a35.4,35.4,0,0,1,.42,50.8c-3.13,3.17-3.7,3.17-8.27-.35,7.54-9.42,14.84-19.13,9.51-32l-2.13-.23c0,2.55.35,5.17-.08,7.65A114.7,114.7,0,0,1,482,199c-.24.78-3.38,1.7-4.07,1.16-5.47-4.34-10.67-9-16.76-14.3Z"/><text class="cls-2" transform="translate(475.78 252.37)">J</text><rect class="cls-3" x="0.5" y="145.11" width="87.34" height="123.2" rx="12"/><rect class="cls-3" x="108.37" y="145.11" width="87.34" height="123.2" rx="12"/><rect class="cls-3" x="216.24" y="145.11" width="87.34" height="123.2" rx="12"/><rect class="cls-3" x="324.1" y="145.11" width="87.34" height="123.2" rx="12"/><rect class="cls-3" x="431.97" y="145.11" width="87.34" height="123.2" rx="12"/><path class="cls-1" d="M41.76,321.08c3.35-3.16,6.61-5.95,9.46-9.1,1.11-1.23,2.19-3.65,1.68-4.87s-3-2-4.68-2.09c-15.48-.67-15,1.79-13.39,14a65.94,65.94,0,0,0,2,7.89c7,0,13.39-.1,19.79.06a26.4,26.4,0,0,1,6,1.22c4.06,1.09,4.89,3.6,3,7.2-4.28,8.05-11.69,12.39-19.56,16-1.23.57-3.81-.21-4.9-1.26-2.77-2.68-5.06-5.87-7.85-9.23-.73.44-1.76,1.61-2.77,1.58-1.94-.05-4.27-.28-5.63-1.41-.71-.59-.29-4.28.64-4.81,5.24-3,3.86-7,2.89-11.61a123.2,123.2,0,0,1-2-17.7c-.24-4,1.63-6.19,6-7.3,7.66-1.95,15.09-2.26,22.64,0,5.87,1.74,8.27,5.06,5.62,10.42-2.56,5.18-6.61,9.8-10.71,14C46.91,327.08,44.24,324.44,41.76,321.08Zm.15,15.48L41,338.28c1.53,1.69,3.8,5.07,4.47,4.78,3.53-1.52,6.65-4,9.91-6.1l-.7-1.74Z"/><text class="cls-2" transform="translate(33.36 396.3)">K</text><path class="cls-1" d="M156.19,314.1c3-3.78,5.8-7.83,9.22-11.23,1.53-1.53,4.68-2.88,6.51-2.34,3.47,1,2.49,4.16,1.7,7.05-3,10.93-1.93,21.33,4.35,31.05.87,1.33,1.46,3.75.82,4.9s-3.07,2.1-4.58,1.94c-5.91-.63-11.44-.38-16.63,3.06-1.18.79-3.31.16-5,.18.16-1.66-.16-3.58.57-4.94,2.37-4.42,5.6-8.4,4.14-14.06-.26-1,1.52-2.59,2.36-3.9,1.2.94,3.19,1.71,3.47,2.87.72,3,.68,6.24,2.12,10.43.94-1.38,2.81-2.87,2.65-4.11-.86-6.92-2.2-13.77-3.41-20.81-4.3,3.65-9.62,6.57-9.86,14.25-.24,7.46-3.78,13.88-9.74,18.84-2.93,2.44-5.5,2.93-7.27-.61a92.25,92.25,0,0,1-6.2-15.41c-.44-1.54,1.43-4.42,3-5.7a42.42,42.42,0,0,1,9.21-5.3c5-2.25,4.73-5.35,2.33-9.41-1.53-2.58-5.81-5.07-1.69-8.28.53-.42,4.76,3.62,7,5.84,1.16,1.13,1.78,2.81,2.64,4.25Zm-12,27c1.56-4.71,3.13-9.42,4.93-14.84C136.31,330.92,135.23,331,144.19,341.06Z"/><text class="cls-2" transform="translate(144.29 396.3)">L</text><path class="cls-1" d="M261.74,349.55c2-1.76,3.67-3.18,5.23-4.74,6-6,6.08-6.84,1.94-14.39-3.81-6.94-3-20.84,2-26.49,1-1.15,3.44-1.07,5.21-1.56.38,1.6,1.57,3.58,1,4.73-4.44,9.34-4.16,17.88,2.93,25.95,1,1.14,1,3.93.41,5.61-2.77,8-9,13.11-15.71,17.61-1,.68-3.2.92-4.11.29-5.59-3.82-11-7.95-16.53-12.07,3.63-4.67,6.22-5.66,9.7-1.47C255.91,345.53,258.91,347.27,261.74,349.55Z"/><path class="cls-1" d="M237.16,334.29c7.57-6,16.08-11.21,17.8-22.29-4.18.27-9-2.91-11.5,3.65-.42,1.1-3.46,1.2-5.29,1.76-.22-1.62-.84-3.31-.57-4.85a29.39,29.39,0,0,1,2.17-5.73c1.62-4,3.59-5.8,8.56-4,3,1.14,7.07-.38,10.66-.72,1.59-.15,4-1,4.58-.34a6.32,6.32,0,0,1,1,5c-2.9,11.26-8.36,21-17.35,28.68C243.47,338.73,240.43,338.73,237.16,334.29Z"/><text class="cls-2" transform="translate(243.74 396.3)">M</text><path class="cls-1" d="M372.77,306.39c-.23,2.49.32,5.44-.83,7.4-5.45,9.33-4.48,19.33-4.21,29.68l14.45-1.92c-2.7-4.21-4.87-8.12-7.58-11.62-1.68-2.16-3.33-4.25-.43-5.89,1.44-.82,4.84-.38,6,.8,6.38,6.69,8.9,15,8.33,24.14-.2,3.18-1.77,3.38-5,2.88a48.19,48.19,0,0,0-15.58.1c-4.55.8-6.41.44-7-4.07-1.57-11.28-.84-22.39,3.19-33.07,1.28-3.39,3.71-6.34,5.62-9.49Z"/><path class="cls-1" d="M354.37,310.75c.7,6.56,1.47,13.12,2.06,19.69a25.47,25.47,0,0,1-.44,4.73c-1.95-.59-5.2-.69-5.63-1.84-4-10.8-4.91-21.84,0-32.65.74-1.64,3.29-2.93,5.23-3.34.82-.17,2.29,2.3,3.32,3.67a23.33,23.33,0,0,1,3.3,5.05c.71,1.77.71,3.81,1,5.74-1.88-.16-3.76-.26-5.62-.5-.48-.06-.91-.57-1.36-.87Z"/><text class="cls-2" transform="translate(354.67 396.49)">N</text><path class="cls-1" d="M469.27,332.14l15.65,14.61c0-2.25-.36-4.78.13-7.12.34-1.62,1.86-3,2.85-4.48,1.33,1.25,4,2.79,3.79,3.7a127.62,127.62,0,0,1-5.17,17.93c-.59,1.59-4.16,3.7-5,3.21a8.74,8.74,0,0,1-3.91-5.6c-1.1-8.29-6.68-12.61-13.36-15.92-1.85-.92-4.32-.66-6.52-.78-4.21-.24-6.42-2.42-5.34-6.51,2.53-9.61,7.24-18,15.47-23.94a5.46,5.46,0,0,1,5.15.16c5.75,4.71,4.86,20.05-1.23,24.38-.65.47-1.74.33-2.64.47-5.42-5.06,2.56-9.81-.51-16.55-2.39,5-4.48,8.84-5.86,12.95C462.65,329.05,467,330.94,469.27,332.14Z"/><text class="cls-2" transform="translate(463.96 396.49)">O</text><rect class="cls-3" x="0.5" y="290.9" width="87.34" height="123.2" rx="12"/><rect class="cls-3" x="108.37" y="290.9" width="87.34" height="123.2" rx="12"/><rect class="cls-3" x="216.24" y="290.9" width="87.34" height="123.2" rx="12"/><rect class="cls-3" x="324.1" y="290.9" width="87.34" height="123.2" rx="12"/><rect class="cls-3" x="431.97" y="290.9" width="87.34" height="123.2" rx="12"/><path class="cls-1" d="M52.94,481.12c.33,7.39.79,13.72.78,20.05,0,1.58-1.53,3.16-2.35,4.74-1.37-1.44-4-3-3.91-4.31,1.06-10.51-5.59-15.72-12.87-21.24a31.65,31.65,0,0,1-9.94-12.18c-2.54-6.11,2-13.77,7.63-15.44,8.14-2.44,18.24,1.45,20.5,8.09.38,1.11-.41,2.62-.65,3.95-1.85-.35-3.91-.31-5.51-1.15-2.34-1.23-4.33-4.31-6.51-4.35-2.44,0-6.6,2.06-7,3.89a12.76,12.76,0,0,0,2.09,9.64c2.54,3.14,6.71,5,9.74,7,1.69-3.72,3.13-6.91,4.58-10.09,3,2.18,6.11,4.23,9,6.61a23.23,23.23,0,0,1,5.28,5.75c1,1.71.9,4.06,1.29,6.13l-2,1.17Z"/><path class="cls-1" d="M41.42,494.71c-2.67,1.76-4.6,4-6.22,3.83-1.83-.23-3.38-2.68-5.06-4.17,1.91-1.79,3.6-4.08,5.86-5.07C36.7,489,39,492.17,41.42,494.71Z"/><text class="cls-2" transform="translate(34.1 544.08)">P</text><path class="cls-1" d="M151.67,487.33c-1.34-7.77-2.53-15.24-4-22.65a5.06,5.06,0,0,0-2.86-3.15c-2.2-.8-4.65-.91-7.48-1.38,0,3.19.35,6.17-.15,9-.25,1.39-2.09,2.49-3.2,3.72-1-1.22-2.9-2.49-2.82-3.62.42-5.71.2-11.14-2.95-16.21-.21-.35,2.14-3.28,3.15-3.2,2.11.19,4,2,6.17,2.38,3.68.64,7.54,1.31,11.19.85,4.31-.56,6.85.46,6.44,4.8-1.41,15.14,4.25,28.1,11.5,40.74.94,1.64.6,4,.86,6-2.1-.65-4.86-.67-6.2-2.06-7.82-8.09-17.36-11.05-28.32-11-1.7,0-3.4-1.95-5.1-3,1.54-1.3,3.07-3.66,4.63-3.68,4.59-.06,9.21.75,13.8,1.34C148.26,486.5,150.18,487,151.67,487.33Z"/><path class="cls-1" d="M161.62,473.57c.16-11.91,3.76-17.89,12-20,2.06-.52,6.06.54,6.79,2,1.58,3.25-1.36,4-4.24,4.58-4.71.94-5.67,5.15-6.16,9-.36,2.87.8,5.92.55,8.82-.16,1.81-1.68,3.49-2.58,5.23-1.76-1.16-4.24-1.95-5.12-3.6C161.71,477.47,161.8,474.63,161.62,473.57Z"/><text class="cls-2" transform="translate(136.45 540.57)">Q</text><path class="cls-1" d="M264.38,461.62c2.46-2.73,4.57-5.67,7.3-7.82,1.21-.95,4.33-1.11,5.48-.21,9.55,7.4,12.68,25.62,6.22,35.8-.63,1-3,.92-4.52,1.34-.35-1.7-1.47-3.73-.92-5.05,4-9.66,3.05-17.35-3.47-24.2-7.78,4.09-8.38,5.43-6.68,13.61a58.86,58.86,0,0,1,1.22,8.85c.2,3.62-.88,6.26-5,7.54-3.3,1-6.17,3.39-9.27,5.09-3.91,2.15-6.52.58-6.58-3.88,0-2,.57-4.29-.1-6.08-1.18-3.13-.57-5.54,2.48-6,1.15-.18,2.89,2.67,4.16,4.3.51.66.47,1.74.68,2.64,7.37-1.95,8.59-5.29,5-13.68-2.34,1.09-4.64,2.22-7,3.25-5.17,2.25-9.77,1.29-13.91-2.48s-4.32-7.95-2.29-12.71S241,452.6,243,448c2.43-5.49,5.06-6.11,9.09-1.67S259.82,455.88,264.38,461.62ZM249.22,452l-2,.61a82.25,82.25,0,0,0-3.22,8.16c-.85,3-3.85,7,.05,8.95,2.69,1.32,6.83,0,10.23-.6,1.47-.26,2.71-1.72,4.82-3.16Z"/><text class="cls-2" transform="translate(242.68 544.08)">R</text><path class="cls-1" d="M379.8,489.35c-3.77-1.12-6.43-2.57-9.07-2.53-3.88.06-6-1.88-5.83-5,.06-1.09,4.8-3.37,6.29-2.69a63.08,63.08,0,0,1,14.87,9.18c2.77,2.39,2,6-1.58,8.47-7.81,5.37-20.08,5.79-28.11.7s-9.07-13.34-2.62-20.4c2.31-2.51,4.78-4.87,7.18-7.3-.28-.69-.56-1.38-.83-2.07-3.23.47-6.44,1.12-9.69,1.35a41.59,41.59,0,0,1-6.46-.53c1.06-1.88,1.81-5.07,3.23-5.4,4.76-1.11,9.77-1.06,14.64-1.74,2.08-.29,4.68-.71,5.95-2.09,2.76-3,4.68-6.71,7.23-9.91,1.14-1.43,2.91-3,4.54-3.16.89-.1,2.74,2.4,3,3.94,1.61,8.21,3,16.48,4.17,24.75.21,1.44-.31,3.94-1.21,4.35-1.34.6-3.34-.18-5-.48-.52-.09-.95-.58-1.44-.84-3.41-1.81-8-5.93-10-4.93-4.58,2.28-8.27,6.8-11.53,11-1,1.32-.33,5.27,1,6.81C362.38,495.3,373.85,494.94,379.8,489.35ZM378.4,460,377,459.6l-3.73,5.64,7.09,4.31C379.49,465.44,378.94,462.7,378.4,460Z"/><text class="cls-2" transform="translate(355.82 544.08)">S</text><path class="cls-1" d="M481,475.61c4-7.78,6-14.88,4.76-22.84-.33-2.11.7-4.42,1.1-6.64,2.06.49,4.7.33,6.09,1.58A100.41,100.41,0,0,1,504,459.43c1.69,2.08,3.08,5.17-.51,7.09s-4.83-.89-6.05-3.59c-.94-2.09-2.17-4-2.81-5.2-3.7,9.22-7.6,18.35-11,27.69-1,2.84-.65,6.23-.75,9.37-.09,2.77.63,6.23-3.48,6.31-4.52.09-3.95-3.43-3.7-6.47a9.78,9.78,0,0,0-.24-1.89c-3.85.75-7.59,1.51-11.35,2.21-5.42,1-6.16-.55-6.16-5.69,0-3.56-2.82-7.07-4.14-10.69A32.55,32.55,0,0,1,452.8,473c2,.09,4.82-.6,5.7.42,3.41,3.93,6.18,8.4,9.63,13.31,6.65-.26,8.66-2.94,6.07-10.4-1.52-4.4-3.29-8.73-5.2-13-3.22-7.13-8-8.95-15.51-6.22-1,.38-2.26,1.1-3.13.82-1.31-.42-3-1.36-3.38-2.48-.32-.88.71-2.79,1.68-3.52,8.12-6.06,20.84-3.16,25.12,5.87C476.39,463.36,478.39,469.13,481,475.61Z"/><text class="cls-2" transform="translate(465.25 544.08)">T</text><rect class="cls-3" x="0.5" y="436.11" width="87.34" height="123.2" rx="12"/><rect class="cls-3" x="108.37" y="436.11" width="87.34" height="123.2" rx="12"/><rect class="cls-3" x="216.24" y="436.11" width="87.34" height="123.2" rx="12"/><rect class="cls-3" x="324.1" y="436.11" width="87.34" height="123.2" rx="12"/><rect class="cls-3" x="431.97" y="436.11" width="87.34" height="123.2" rx="12"/><rect class="cls-3" x="216.24" y="744.05" width="87.34" height="123.2" rx="12"/><path class="cls-1" d="M28.09,602.44c2.65,10.62,5.17,19.91,7.18,29.3.46,2.15-.81,4.68-1.29,7-2.09-.63-4.41-.88-6.24-2a107.77,107.77,0,0,1-11.4-7.8c-1.39-1.08-2.07-3.07-3.07-4.65,1.76-.81,3.48-2.14,5.31-2.29,1.64-.15,3.39,1,5.9,1.83-1.71-7.72-3.12-14.81-4.87-21.8-1.45-5.81,1.4-9.06,7.33-7.79A52.29,52.29,0,0,1,53.37,609c-.47-3.91-1.33-7.82-1.25-11.72,0-2.07,1.71-4.11,2.64-6.17,1.92,1.08,4.23,1.78,5.68,3.31,4.09,4.32,7.77,9,11.71,13.48,1.86,2.1,4.5,3.83,1.69,7-2.47,2.79-4.85,2-7.29,0-1-.82-2.06-1.52-4.51-3.31,2.35,8.71,4.28,16,6.27,23.17.39,1.43,1.61,2.89,1.41,4.17-.33,2-1.54,3.95-2.37,5.91-1.9-1.07-4.66-1.69-5.53-3.31-2.61-4.89-4.14-10.35-6.72-15.26C49.53,615.58,40.86,608.15,28.09,602.44Z"/><path class="cls-1" d="M49.56,624.57c-2.14,1.28-4.44,3.76-6.38,3.5s-3.65-3.18-5.45-4.94c1.93-1.42,3.79-3.85,5.8-4s4,2.14,6,3.35Z"/><text class="cls-2" transform="translate(31.51 692.38)">U</text><path class="cls-1" d="M152.66,620.61c.18,6.41,5.77,5,7.32,6.18,2.53-1.77,4.31-4,6.13-4.09,3.51-.07,5.67,2,5.41,6.17-.81,12.92-.72,12.91-12.23,7.15a35.73,35.73,0,0,0-4.06-1.37c.87,3.19,1.86,5.57,2.08,8,.14,1.67-.79,3.45-1.24,5.18-2-.9-4.75-1.28-5.7-2.8-1.8-2.91-2.56-6.47-4.09-10.7-2.85,1.81-5,3.68-7.42,4.54-1.8.64-4.5.67-6-.28-2.54-1.59-2.1-4.08.16-6.06.28-.25.5-.57.8-.79,6.51-4.69,12.54-9.48,10.4-19.1-.29-1.31,2.09-4,3.8-4.73,1.21-.54,3.45.92,5.09,1.75,1,.48,1.66,2.15,2.46,2.13a52,52,0,0,0,7.28-1c-1-1.88-1.68-5.08-3.06-5.41-5-1.21-10.16-1.53-15.29-2-1.26-.12-2.78.87-3.83.45a46.9,46.9,0,0,1-6.29-3.59c1.54-1.29,3-3.64,4.62-3.7,7.7-.3,15.67-1.16,23,.44,8.07,1.75,11.37,9.13,9.17,15.93-2.32,7.17-7.28,9.52-16.15,7.71A15.53,15.53,0,0,0,152.66,620.61Z"/><text class="cls-2" transform="translate(139.78 692.38)">V</text><path class="cls-1" d="M288.72,628c-8.72,4.85-8.46,2.57-15.82-13.38l-18.61,13c1.06,3.65,2.23,7.65,3.21,11l15.77-1.35c-2.87-2.13-5.53-3.76-7.73-5.88-1.19-1.15-1.6-3.11-2.36-4.71,2.21-.94,4.82-3.15,6.57-2.61,7.13,2.23,16.27,16,15.95,23.54A6.26,6.26,0,0,1,283,652a4.69,4.69,0,0,1-4.41-.64c-5.62-5.49-12.4-5-18.91-3.3-4.64,1.22-7,.14-8.77-4-1.89-4.44-4-8.77-5.68-12.31-3.47-1.26-7.55-1.46-9.1-3.55-3.7-5-5.67-11.08-4.05-17.43.4-1.56,3-2.56,4.55-3.82.92,1.6,2.28,3.1,2.66,4.82.59,2.66.32,5.5.84,8.18.18.92,1.65,1.59,2.54,2.37.65-1,1.73-1.9,1.89-3,.83-5.34,1.15-10.77,2.25-16,.33-1.6,2.55-2.8,3.91-4.18,1.24,2,3.4,3.84,3.53,5.86.24,3.72-.7,7.53-1.15,11.3l1.6,1c5.48-4.33,10.88-8.76,16.46-12.94,2.1-1.57,4.62-2.57,6.95-3.84.72,2.41,1.35,4.85,2.18,7.22,1.48,4.18,3,8.36,4.66,12.46C286.05,622.89,287.47,625.42,288.72,628Z"/><text class="cls-2" transform="translate(245.86 692.38)">W</text><path class="cls-1" d="M357.58,638.32c-1.85.76-3.17,1.59-4.59,1.82-2.91.48-4.6-.61-4.53-3.94.15-6.12.24-12.25.07-18.36-.15-5.34,1.91-7,7-5.37,2.29.75,4.67,1.22,6.49,1.69,4.81-5.15,9.29-10,13.89-14.78a6.5,6.5,0,0,1,3.33-1.92c1.3-.2,3.61,0,3.89.72a5,5,0,0,1-.55,4.3c-2.75,3.39-5.9,6.46-8.89,9.65l1.14,1.49c2.76-1.63,5.57-3.17,8.25-4.93,2.14-1.4,4.17-4,6.48-.54,2,3,.79,5.56-2.16,6.93a128.48,128.48,0,0,1-15.45,6.33c-3.12,1-5.15,2-4.61,5.61,4.74.71,9.59,1,14.15,2.3a11.81,11.81,0,0,1,6.23,5c.48.8-2,4.18-3.8,5.38-5.36,3.58-10.79,7.29-16.68,9.79-7.27,3.09-10.27.34-9.64-7.65C357.65,640.94,357.58,640,357.58,638.32Zm8.07,4.82,11.68-7.62C366.19,633.05,364.72,634,365.65,643.14Z"/><text class="cls-2" transform="translate(357.85 692.92)">X</text><path class="cls-1" d="M458.6,620.54c2.13,5.26,3.93,10.7,6.51,15.73,1.54,3,1.23,5.43-1.34,6.54-1.21.52-4.32-1.2-5.32-2.73-5.43-8.32-9-17.31-6.52-27.48a10.76,10.76,0,0,1,4.11-5.81c.65-.45,3.85,1.71,5,3.31,4.41,6,16.44,8.22,21.6,3.07,1.7-1.69,2.4-5.88,1.6-8.26-1.52-4.51-7.95-6.47-12.36-4.46-2,.91-3.58,3.07-5.61,3.54a8.84,8.84,0,0,1-6.19-1.15c-.77-.49-.66-3.76.17-5.06,3.67-5.75,14.92-7.65,23.72-4.34,6.42,2.41,10.4,9.36,9.5,16.57s-7.8,13.4-15.55,13.73c-6.29.27-12.77.78-17.94-4.41Z"/><path class="cls-1" d="M463.87,627.75c8.61-3.26,16.41-1,23.64,4.45,1.76-3.51,3-6.83,5-9.61,1-1.39,3.39-1.79,5.15-2.64.54,2.16,1.52,4.33,1.47,6.48,0,1.48-1.84,2.84-2.24,4.42-.77,3-1,6.08-1.65,9.11-.35,1.76-1,3.47-1.46,5.2-1.77-.63-3.8-.89-5.24-2-2.07-1.54-3.38-4.33-5.59-5.4-3.89-1.88-8.24-2.8-12.35-4.26-2.58-.92-5.07-2.1-7.61-3.16Z"/><text class="cls-2" transform="translate(464.27 692.37)">Y</text><rect class="cls-3" x="0.5" y="581.31" width="87.34" height="123.2" rx="12"/><rect class="cls-3" x="108.37" y="581.31" width="87.34" height="123.2" rx="12"/><rect class="cls-3" x="216.24" y="581.31" width="87.34" height="123.2" rx="12"/><rect class="cls-3" x="324.1" y="581.31" width="87.34" height="123.2" rx="12"/><rect class="cls-3" x="431.97" y="581.31" width="87.34" height="123.2" rx="12"/></g></g></svg>